<svg xmlns="http://www.w3.org/2000/svg" xmlns:xlink="http://www.w3.org/1999/xlink" width="254" height="18" class="svg"><title>badge-for-git. Style: 5</title><desc>char-height: 18 char_width : 9 font-size  : 15</desc><path fill="#434343" d="M0,0 36,0 45,9 36,18 0,18 9,9"></path><text fill="#FFF" x="13.5" y="14" font-family="&quot;DejaVu Sans Mono&quot;, &quot;Source code variable&quot;, monospace" font-size="15">we</text><path fill="#CB0000" d="M41,0 77,0 86,9 77,18 41,18 50,9"></path><text fill="#FFF" x="54.5" y="14" font-family="&quot;DejaVu Sans Mono&quot;, &quot;Source code variable&quot;, monospace" font-size="15">do</text><path fill="#CB0000" d="M82,0 127,0 136,9 127,18 82,18 91,9"></path><text fill="#FFF" x="95.5" y="14" font-family="&quot;DejaVu Sans Mono&quot;, &quot;Source code variable&quot;, monospace" font-size="15">not</text><path fill="#CB0000" d="M132,0 186,0 195,9 186,18 132,18 141,9"></path><text fill="#FFF" x="145.5" y="14" font-family="&quot;DejaVu Sans Mono&quot;, &quot;Source code variable&quot;, monospace" font-size="15">need</text><path fill="#CB0000" d="M191,0 245,0 254,9 245,18 191,18 200,9"></path><text fill="#FFF" x="204.5" y="14" font-family="&quot;DejaVu Sans Mono&quot;, &quot;Source code variable&quot;, monospace" font-size="15">this</text></svg>
